<?xml version="1.0" encoding="UTF-8"?>
<svg xmlns="http://www.w3.org/2000/svg" xmlns:xlink="http://www.w3.org/1999/xlink" width="50.000mm" height="103.423mm" viewBox="121.485886 443.751282 50.000183 103.422913">
    <path transform="matrix(1.08696,0,0,1.08696,146.485992,522.174133)" style="stroke:#ff0000;stroke-width:0.05mm;fill:none" d="M23,-19C23,-21.209141,21.209137,-23,19,-23L-19,-23C-21.209137,-23,-23,-21.209141,-23,-19L-23,19C-23,21.209137,-21.209137,23,-19,23L19,23C21.209137,23,23,21.209137,23,19L23,-19z"/>
    <rect transform="translate(132.450806,542.139404)" style="stroke:#0000ff;stroke-width:0.05mm;fill:none" x="-4.5" y="-0.279558" width="9.000001" height="0.559116"/>
    <rect transform="translate(129.316986,503.849213)" style="stroke:#0000ff;stroke-width:0.05mm;fill:none" x="-1.25" y="-1.954558" width="2.5" height="3.909117"/>
    <rect transform="translate(155.046082,498.234314)" style="stroke:#0000ff;stroke-width:0.05mm;fill:none" x="-0.319832" y="-1" width="0.639664" height="1.999999"/>
    <rect transform="translate(166.489227,505.483917)" style="stroke:#0000ff;stroke-width:0.05mm;fill:none" x="-0.361492" y="-1.749999" width="0.722985" height="3.499998"/>
    <circle transform="matrix(-0,-1,1,-0,132.485992,502.874115)" style="stroke:#ff0000;stroke-width:0.05mm;fill:none" r="2" cx="0" cy="0"/>
    <rect transform="translate(164.051239,515.55719)" style="stroke:#0000ff;stroke-width:0.05mm;fill:none" x="-0.361492" y="-1.749999" width="0.722985" height="3.499998"/>
    <rect transform="matrix(-1,0.000001,-0.000001,-1,150.141998,503.155212)" style="stroke:#ff0000;stroke-width:0.05mm;fill:none" x="-11.500001" y="-1.499999" width="23.000002" height="2.999997"/>
    <rect transform="matrix(1,-0.000001,0.000001,1,155.19989,508.075104)" style="stroke:#ff0000;stroke-width:0.05mm;fill:none" x="-5.000001" y="-2" width="10.000002" height="4"/>
    <rect transform="matrix(-0.000001,-1.84615,1.05769,-0.000002,165.34201,510.549103)" style="stroke:#ff0000;stroke-width:0.05mm;fill:none" x="-3.249999" y="-2.6" width="6.499999" height="5.2"/>
    <rect transform="matrix(-0.000001,-1.10219,1,-0.000001,165.34201,528.2323)" style="stroke:#ff0000;stroke-width:0.05mm;fill:none" x="-10.049997" y="-1.499999" width="20.099995" height="2.999997"/>
    <rect transform="matrix(3.409372,-0.000001,0.000003,1.494248,151.184509,539.826294)" style="stroke:#ff0000;stroke-width:0.05mm;fill:none" x="-4.6" y="-2.599998" width="9.200001" height="5.199995"/>
    <circle transform="matrix(-0,-1,1,-0,166.517426,542.223999)" style="stroke:#ff0000;stroke-width:0.05mm;fill:none" r="1.549999" cx="0" cy="0"/>
    <circle transform="matrix(-0,-1,1,-0,126.554596,542.224243)" style="stroke:#ff0000;stroke-width:0.05mm;fill:none" r="1.550001" cx="0" cy="0"/>
    <circle transform="matrix(-0,-1,1,-0,126.554596,502.224213)" style="stroke:#ff0000;stroke-width:0.05mm;fill:none" r="1.550001" cx="0" cy="0"/>
    <circle transform="matrix(-0,-1,1,-0,166.517426,502.223999)" style="stroke:#ff0000;stroke-width:0.05mm;fill:none" r="1.549999" cx="0" cy="0"/>
    <path transform="matrix(1.08696,0,0,1.08696,146.485962,468.751373)" style="stroke:#ff0000;stroke-width:0.05mm;fill:none" d="M23,-19C23,-21.209141,21.209137,-23,19,-23L-19,-23C-21.209137,-23,-23,-21.209141,-23,-19L-23,19C-23,21.209137,-21.209137,23,-19,23L19,23C21.209137,23,23,21.209137,23,19L23,-19z"/>
    <circle transform="matrix(-0,-1,1,-0,166.517151,488.801239)" style="stroke:#ff0000;stroke-width:0.05mm;fill:none" r="1.549999" cx="0" cy="0"/>
    <circle transform="matrix(-0,-1,1,-0,126.554626,488.801422)" style="stroke:#ff0000;stroke-width:0.05mm;fill:none" r="1.549999" cx="0" cy="0"/>
    <circle transform="matrix(-0,-1,1,-0,126.554626,448.801483)" style="stroke:#ff0000;stroke-width:0.05mm;fill:none" r="1.549999" cx="0" cy="0"/>
    <circle transform="matrix(-0,-1,1,-0,166.517151,448.801239)" style="stroke:#ff0000;stroke-width:0.05mm;fill:none" r="1.549999" cx="0" cy="0"/>
</svg>
